# xmcd
#
# Track frame offsets: 
#        150
#        13041
#        40317
#        69183
#        94401
#        115285
#        153407
#        177262
#        195623
#        213442
#        228150
#        240976
#        252946
#        272753
#        296674
#
# Disc length: 4444 seconds
#
# Revision: 0
# Processed by: cddbd v1.4PL0 Copyright (c) Steve Scherf et al.
# Submitted via: ExactAudioCopy v0.95a3
#
DISCID=ce115a0f
DTITLE=Van Morrison - Too Long In Exile
DYEAR=1900
DGENRE=Blues
TTITLE0=Too Long In Exile
TTITLE1=Big Time Operators
TTITLE2=Lonely Avenue
TTITLE3=Ball and Chain
TTITLE4=In The Forest
TTITLE5=Till We Get The Healing Done
TTITLE6=Gloria
TTITLE7=Good Morning Little Schoolgirl
TTITLE8=Wasted Years
TTITLE9=The Lonesome Road
TTITLE10=Moody's Mood For Love
TTITLE11=Close Enough For Jazz (Instr.)
TTITLE12=Before The World Was Made
TTITLE13=I'll Take Care Of You
TTITLE14=Instrumental - Tell Me What You Want
EXTD=
EXTT0=
EXTT1=
EXTT2=
EXTT3=
EXTT4=
EXTT5=
EXTT6=
EXTT7=
EXTT8=
EXTT9=
EXTT10=
EXTT11=
EXTT12=
EXTT13=
EXTT14=
PLAYORDER=
